<?xml version="1.0" encoding="UTF-8"?>
<!DOCTYPE svg PUBLIC "-//W3C//DTD SVG 1.1//EN" "http://www.w3.org/Graphics/SVG/1.1/DTD/svg11.dtd">
<!-- Creator: CorelDRAW 2020 (64-Bit) -->
<svg xmlns="http://www.w3.org/2000/svg" xml:space="preserve" width="231px" height="234px" version="1.1" style="shape-rendering:geometricPrecision; text-rendering:geometricPrecision; image-rendering:optimizeQuality; fill-rule:evenodd; clip-rule:evenodd"
viewBox="0 0 229.32 232.32"
 xmlns:xlink="http://www.w3.org/1999/xlink"
 xmlns:xodm="http://www.corel.com/coreldraw/odm/2003">
 <defs>
  <style type="text/css">
   <![CDATA[
    .fil0 {fill:#7E8488;fill-rule:nonzero}
   ]]>
  </style>
 </defs>
 <g id="Слой_x0020_1">
  <metadata id="CorelCorpID_0Corel-Layer"/>
  <path class="fil0" d="M15.23 42.38l154.71 0 0 138.22 -63.84 0 0 36.62 108.3 0 0 -202.3 -199.17 0 0 27.46zm-0.31 46.11l106.42 0 0 45.88 -61.14 0 0 83.06 8.54 0.01 0 -74.97 62.14 0 0 -62.74 -115.96 0 0 8.76zm91.5 14.92l-91.5 0 0 113.98 30.36 0 0 -97.94 61.14 0 0 -16.04zm-46.22 128.88l0 0.02 -60.2 0 0 -167.51 145.8 0 0 92.59 -62.13 0 0 74.93 -23.47 -0.03zm30.98 -9.03l0 -1.32 0 -56.26 63.84 0 0 -108.38 -139.79 0 0 0.02 -14.92 0 0 -57.32 229.01 0 0 232.14 -138.14 0 0 -8.88z"/>
 </g>
</svg>
