<?xml version="1.0" encoding="UTF-8"?>
<!DOCTYPE svg PUBLIC "-//W3C//DTD SVG 1.1//EN" "http://www.w3.org/Graphics/SVG/1.1/DTD/svg11.dtd">
<!-- Creator: CorelDRAW 2020 (64-Bit) -->
<svg xmlns="http://www.w3.org/2000/svg" xml:space="preserve" width="231px" height="234px" version="1.1" style="shape-rendering:geometricPrecision; text-rendering:geometricPrecision; image-rendering:optimizeQuality; fill-rule:evenodd; clip-rule:evenodd"
viewBox="0 0 11.18 11.33"
 xmlns:xlink="http://www.w3.org/1999/xlink"
 xmlns:xodm="http://www.corel.com/coreldraw/odm/2003">
 <defs>
  <style type="text/css">
   <![CDATA[
    .fil0 {fill:url(#id0);fill-rule:nonzero}
   ]]>
  </style>
  <linearGradient id="id0" gradientUnits="userSpaceOnUse" x1="-11.11" y1="16.97" x2="17.54" y2="2.18">
   <stop offset="0" style="stop-opacity:1; stop-color:#EEB25C"/>
   <stop offset="0.360784" style="stop-opacity:1; stop-color:#CAA473"/>
   <stop offset="0.580392" style="stop-opacity:1; stop-color:#ECC578"/>
   <stop offset="0.8" style="stop-opacity:1; stop-color:#91754D"/>
   <stop offset="1" style="stop-opacity:1; stop-color:#EBD38B"/>
  </linearGradient>
 </defs>
 <g id="Слой_x0020_1">
  <metadata id="CorelCorpID_0Corel-Layer"/>
  <path class="fil0" d="M0.74 2.07l7.54 0 0 6.73 -3.11 0 0 1.79 5.28 0 0 -9.86 -9.71 0 0 1.34zm-0.01 2.24l5.19 0 0 2.24 -2.99 0 0 4.05 0.42 0 0 -3.65 3.03 0 0 -3.06 -5.65 0 0 0.42zm4.46 0.73l-4.46 0 0 5.56 1.48 0 0 -4.78 2.98 0 0 -0.78zm-2.26 6.28l0 0.01 -2.93 0 0 -8.17 7.11 0 0 4.51 -3.03 0 0 3.66 -1.15 -0.01zm1.52 -0.44l0 -0.06 0 -2.74 3.11 0 0 -5.29 -6.82 0 0 0 -0.72 0 0 -2.79 11.16 0 0 11.32 -6.73 0 0 -0.44z"/>
 </g>
</svg>
