<?xml version="1.0" encoding="UTF-8"?>
<!DOCTYPE svg PUBLIC "-//W3C//DTD SVG 1.1//EN" "http://www.w3.org/Graphics/SVG/1.1/DTD/svg11.dtd">
<!-- Creator: CorelDRAW 2020 (64-Bit) -->
<svg xmlns="http://www.w3.org/2000/svg" xml:space="preserve" width="679px" height="471px" version="1.1" style="shape-rendering:geometricPrecision; text-rendering:geometricPrecision; image-rendering:optimizeQuality; fill-rule:evenodd; clip-rule:evenodd"
viewBox="0 0 677.32 469.96"
 xmlns:xlink="http://www.w3.org/1999/xlink"
 xmlns:xodm="http://www.corel.com/coreldraw/odm/2003">
 <defs>
  <style type="text/css">
   <![CDATA[
    .fil2 {fill:url(#id0);fill-rule:nonzero}
    .fil1 {fill:url(#id1);fill-rule:nonzero}
    .fil0 {fill:url(#id2);fill-rule:nonzero}
   ]]>
  </style>
  <linearGradient id="id0" gradientUnits="userSpaceOnUse" x1="185.75" y1="581.2" x2="211.77" y2="346.9">
   <stop offset="0" style="stop-opacity:1; stop-color:#EEB25C"/>
   <stop offset="0.360784" style="stop-opacity:1; stop-color:#CAA473"/>
   <stop offset="0.580392" style="stop-opacity:1; stop-color:#ECC578"/>
   <stop offset="0.8" style="stop-opacity:1; stop-color:#91754D"/>
   <stop offset="1" style="stop-opacity:1; stop-color:#EBD38B"/>
  </linearGradient>
  <linearGradient id="id1" gradientUnits="userSpaceOnUse" xlink:href="#id0" x1="117.13" y1="667.96" x2="272.26" y2="105">
  </linearGradient>
  <linearGradient id="id2" gradientUnits="userSpaceOnUse" xlink:href="#id0" x1="-4.9" y1="349.07" x2="584.45" y2="44.88">
  </linearGradient>
 </defs>
 <g id="Слой_x0020_1">
  <metadata id="CorelCorpID_0Corel-Layer"/>
  <g id="_1877616111712">
   <path class="fil0" d="M238.94 42.5l155.16 0 0 138.62 -64.02 0 0 36.73 108.61 0 0 -202.89 -199.75 0 0 27.54zm-0.31 46.25l106.73 0 0 46.01 -61.32 0 0 83.3 8.57 0.01 0 -75.18 62.31 0 0 -62.93 -116.29 0 0 8.79zm91.77 14.96l-91.77 0 0 114.31 30.45 0 0 -98.22 61.32 0 0 -16.09zm-46.36 129.25l0 0.02 -60.38 0 0 -167.99 146.23 0 0 92.86 -62.32 0 0 75.14 -23.53 -0.03zm31.07 -9.05l0 -1.33 0 -56.42 64.02 0 0 -108.7 -140.19 0 0 0.03 -14.96 0 0 -57.49 229.67 0 0 232.81 -138.54 0 0 -8.9z"/>
   <g>
    <path class="fil1" d="M18.84 401.57c-5.15,0 -9.58,-1.85 -13.28,-5.56 -3.71,-3.71 -5.56,-8.13 -5.56,-13.28l0 -59.91c0,-5.16 1.85,-9.58 5.56,-13.29 3.7,-3.7 8.13,-5.56 13.28,-5.56l78.48 0 0 18.03 -74.68 0c-2.53,0 -3.96,0.16 -4.27,0.48 -0.32,0.31 -0.48,1.74 -0.48,4.27l0 52.05c0,2.53 0.16,3.95 0.48,4.27 0.31,0.31 1.74,0.47 4.27,0.47l74.68 0 0 18.03 -78.48 0zm92.71 0l0 -97.6 18.03 0 0 39.72 22.91 0 33.34 -39.72 19.52 0 0 5.16 -36.6 43.64 36.74 43.65 0 5.15 -19.66 0 -33.34 -39.72 -22.91 0 0 39.72 -18.03 0zm149.38 0l0 -97.46 78.61 0c5.24,0 9.72,1.88 13.42,5.63 3.71,3.75 5.56,8.15 5.56,13.21l0 26.3c0,5.15 -1.85,9.58 -5.56,13.28 -3.7,3.71 -8.18,5.56 -13.42,5.56l-60.72 0.13 0 33.35 -17.89 0zm22.63 -51.51l52.19 0c2.44,0 3.84,-0.14 4.2,-0.41 0.36,-0.27 0.54,-1.67 0.54,-4.2l0 -18.7c0,-2.53 -0.18,-3.96 -0.54,-4.27 -0.36,-0.32 -1.76,-0.48 -4.2,-0.48l-52.19 0c-2.53,0 -3.95,0.16 -4.27,0.48 -0.32,0.31 -0.47,1.74 -0.47,4.27l0 18.7c0,2.53 0.15,3.93 0.47,4.2 0.32,0.27 1.74,0.41 4.27,0.41zm84.85 51.51l0 -97.6 89.73 0 0.14 18.03 -71.84 -0.13 0 21.82 57.74 0.14 0 18.02 -57.74 -0.13 0 21.82 71.7 0.14 0.14 17.89 -89.87 0zm103.69 0l0 -97.6 18.03 0 0 39.72 22.91 0 33.34 -39.72 19.52 0 0 5.16 -36.6 43.64 36.74 43.65 0 5.15 -19.66 0 -33.34 -39.72 -22.91 0 0 39.72 -18.03 0zm126.47 0c-5.15,0 -9.58,-1.85 -13.29,-5.56 -3.7,-3.71 -5.55,-8.13 -5.55,-13.28l0 -59.91c0,-5.16 1.85,-9.58 5.55,-13.29 3.71,-3.7 8.14,-5.56 13.29,-5.56l59.91 0c5.15,0 9.58,1.86 13.28,5.56 3.71,3.71 5.56,8.13 5.56,13.29l0 59.91c0,5.15 -1.85,9.57 -5.56,13.28 -3.7,3.71 -8.13,5.56 -13.28,5.56l-59.91 0zm3.79 -18.03l52.19 0c2.44,0 3.84,-0.16 4.2,-0.47 0.36,-0.32 0.54,-1.74 0.54,-4.27l0 -52.05c0,-2.53 -0.18,-3.96 -0.54,-4.27 -0.36,-0.32 -1.76,-0.48 -4.2,-0.48l-52.19 0c-2.53,0 -3.95,0.16 -4.27,0.48 -0.31,0.31 -0.47,1.74 -0.47,4.27l0 52.05c0,2.53 0.16,3.95 0.47,4.27 0.32,0.31 1.74,0.47 4.27,0.47z"/>
    <path class="fil2" d="M15.16 432.32l0.04 30.88 -5.59 0 -0.05 -30.88 5.6 0zm12.89 12.22l0 4.38 -13.25 -0.04 0.04 -4.34 13.21 0zm5.1 -12.22l0 30.88 -5.6 0 0 -30.88 5.6 0zm22.47 0c0.48,0 0.89,0.14 1.25,0.4 0.36,0.27 0.61,0.63 0.76,1.08l9.36 29.4 -5.73 0 -7.07 -23.81c-0.12,-0.48 -0.24,-0.95 -0.36,-1.43 -0.12,-0.48 -0.23,-0.94 -0.32,-1.39l-1.25 0c-0.09,0.45 -0.19,0.91 -0.31,1.39 -0.12,0.48 -0.26,0.95 -0.4,1.43l-7.03 23.81 -5.73 0 9.35 -29.4c0.12,-0.45 0.37,-0.81 0.74,-1.08 0.37,-0.26 0.8,-0.4 1.28,-0.4l5.46 0zm5.19 17.68l0 4.38 -15.89 0 0 -4.38 15.89 0zm35.36 -17.68l0 30.88 -5.6 0 0 -26.76 -5.05 0c-0.99,0 -1.7,0.22 -2.15,0.67 -0.45,0.45 -0.7,1.18 -0.76,2.19 -0.15,2.15 -0.34,4.13 -0.56,5.95 -0.22,1.82 -0.5,3.53 -0.83,5.11 -0.33,1.58 -0.73,3.08 -1.21,4.52 -0.48,1.43 -1.04,2.82 -1.7,4.18 -0.65,1.36 -1.44,2.74 -2.37,4.14l-4.88 0c1.46,-2.54 2.61,-5.17 3.45,-7.9 0.83,-2.73 1.47,-5.51 1.9,-8.34 0.43,-2.84 0.75,-5.69 0.96,-8.55 0.09,-1.88 0.73,-3.37 1.9,-4.46 1.18,-1.08 2.76,-1.63 4.73,-1.63l12.17 0zm-21.75 30.57l-0.49 7.07 -3.99 0 0 -7.07 4.48 0zm25.69 -3.81l0 4.12 -30.17 0 0 -4.12 30.17 0zm0 3.81l0 7.07 -3.99 0 -0.44 -7.07 4.43 0zm12.58 -30.66c1.55,0 3.14,0 4.76,0 1.63,0 3.22,0.03 4.79,0.09 1.57,0.06 3.07,0.15 4.5,0.27l-0.27 4.16 -12.08 0c-0.84,0 -1.45,0.21 -1.84,0.63 -0.38,0.42 -0.58,1.07 -0.58,1.97l0 16.82c0,0.9 0.2,1.55 0.58,1.97 0.39,0.42 1,0.63 1.84,0.63l12.08 0 0.27 4.16c-1.43,0.12 -2.93,0.2 -4.5,0.25 -1.57,0.04 -3.16,0.07 -4.79,0.09 -1.62,0.01 -3.21,0.02 -4.76,0.02 -1.91,0 -3.44,-0.53 -4.59,-1.59 -1.15,-1.06 -1.72,-2.48 -1.72,-4.27l0 -19.34c0,-1.79 0.57,-3.21 1.72,-4.27 1.15,-1.06 2.68,-1.59 4.59,-1.59zm-5.55 12.76l17.63 0 0 4.11 -17.63 0 0 -4.11zm62.97 -12.67c-0.6,1.85 -1.15,3.52 -1.66,5.01 -0.5,1.49 -1,2.81 -1.5,3.94 -0.49,1.14 -1.04,2.1 -1.65,2.91 -0.61,0.81 -1.32,1.44 -2.13,1.9 -0.8,0.47 -1.79,0.77 -2.95,0.92l0 0.18c1.22,0.15 2.26,0.45 3.11,0.89 0.85,0.45 1.6,1.09 2.24,1.93 0.64,0.83 1.24,1.86 1.79,3.09 0.55,1.22 1.11,2.67 1.68,4.34 0.56,1.67 1.19,3.59 1.88,5.77l-5.87 0c-0.86,-2.51 -1.62,-4.65 -2.26,-6.42 -0.64,-1.78 -1.26,-3.22 -1.86,-4.34 -0.59,-1.12 -1.27,-1.95 -2.03,-2.49 -0.76,-0.53 -1.69,-0.8 -2.8,-0.8l0 -4.07c1.05,0 1.94,-0.29 2.69,-0.85 0.74,-0.57 1.41,-1.4 1.99,-2.49 0.58,-1.09 1.16,-2.42 1.72,-4 0.57,-1.59 1.19,-3.39 1.88,-5.42l5.73 0zm-31.91 0c0.69,2.03 1.31,3.83 1.86,5.42 0.55,1.58 1.13,2.91 1.72,4 0.6,1.09 1.27,1.92 2.02,2.49 0.74,0.56 1.62,0.85 2.64,0.85l0 4.07c-1.11,0 -2.03,0.27 -2.78,0.8 -0.74,0.54 -1.42,1.37 -2.01,2.49 -0.6,1.12 -1.22,2.56 -1.86,4.34 -0.64,1.77 -1.39,3.91 -2.26,6.42l-5.86 0c0.71,-2.18 1.35,-4.1 1.9,-5.77 0.55,-1.67 1.1,-3.12 1.63,-4.34 0.54,-1.23 1.14,-2.26 1.79,-3.09 0.66,-0.84 1.41,-1.48 2.26,-1.93 0.85,-0.44 1.88,-0.74 3.07,-0.89l0 -0.18c-1.13,-0.15 -2.11,-0.45 -2.91,-0.92 -0.81,-0.46 -1.51,-1.09 -2.13,-1.9 -0.61,-0.81 -1.16,-1.77 -1.65,-2.91 -0.49,-1.13 -0.99,-2.45 -1.48,-3.94 -0.49,-1.49 -1.03,-3.16 -1.63,-5.01l5.68 0zm11.77 12.76l0 4.07 -4.83 0 0 -4.07 4.83 0zm4.07 -12.76l0 9.13c0,0.96 -0.06,1.9 -0.18,2.82 -0.12,0.93 -0.32,1.85 -0.62,2.77 0.24,0.87 0.43,1.76 0.58,2.67 0.15,0.91 0.22,1.78 0.22,2.62l0 10.87 -5.37 0 0 -10.87c0,-0.84 0.09,-1.71 0.27,-2.62 0.18,-0.91 0.37,-1.8 0.58,-2.67 -0.29,-0.92 -0.51,-1.84 -0.65,-2.77 -0.13,-0.92 -0.2,-1.86 -0.2,-2.82l0 -9.13 5.37 0zm3.4 12.76l0 4.07 -4.61 0 0 -4.07 4.61 0zm25.52 -12.76l0.04 30.88 -5.59 0 -0.04 -30.88 5.59 0zm12.89 12.22l0 4.38 -13.25 -0.04 0.05 -4.34 13.2 0zm5.1 -12.22l0 30.88 -5.6 0 0 -30.88 5.6 0zm20.59 -0.58c2.39,0 4.4,0.26 6.04,0.78 1.64,0.52 2.95,1.4 3.94,2.62 0.98,1.22 1.71,2.86 2.17,4.92 0.46,2.06 0.69,4.63 0.69,7.7 0,3.04 -0.23,5.6 -0.69,7.68 -0.46,2.07 -1.19,3.72 -2.17,4.94 -0.99,1.22 -2.3,2.1 -3.94,2.62 -1.64,0.52 -3.65,0.78 -6.04,0.78 -2.33,0 -4.31,-0.26 -5.95,-0.78 -1.64,-0.52 -2.97,-1.4 -3.98,-2.62 -1.02,-1.22 -1.75,-2.87 -2.2,-4.94 -0.44,-2.08 -0.67,-4.64 -0.67,-7.68 0,-3.07 0.23,-5.64 0.67,-7.7 0.45,-2.06 1.18,-3.7 2.2,-4.92 1.01,-1.22 2.34,-2.1 3.98,-2.62 1.64,-0.52 3.62,-0.78 5.95,-0.78zm0 4.56c-1.76,0 -3.14,0.36 -4.14,1.06 -1,0.7 -1.71,1.87 -2.13,3.53 -0.41,1.66 -0.62,3.95 -0.62,6.87 0,2.92 0.21,5.21 0.62,6.87 0.42,1.66 1.13,2.83 2.13,3.54 1,0.7 2.38,1.05 4.14,1.05 1.79,0 3.19,-0.35 4.19,-1.05 0.99,-0.71 1.7,-1.88 2.12,-3.54 0.42,-1.66 0.63,-3.95 0.63,-6.87 0,-2.92 -0.21,-5.21 -0.63,-6.87 -0.42,-1.66 -1.13,-2.83 -2.12,-3.53 -1,-0.7 -2.4,-1.06 -4.19,-1.06zm26.63 -4.07c1.56,0 3.14,0 4.77,0 1.63,0 3.22,0.03 4.79,0.09 1.56,0.06 3.06,0.15 4.5,0.27l-0.27 4.16 -12.09 0c-0.83,0 -1.44,0.21 -1.83,0.63 -0.39,0.42 -0.58,1.07 -0.58,1.97l0 16.82c0,0.9 0.19,1.55 0.58,1.97 0.39,0.42 1,0.63 1.83,0.63l12.09 0 0.27 4.16c-1.44,0.12 -2.94,0.2 -4.5,0.25 -1.57,0.04 -3.16,0.07 -4.79,0.09 -1.63,0.01 -3.21,0.02 -4.77,0.02 -1.9,0 -3.44,-0.53 -4.58,-1.59 -1.15,-1.06 -1.73,-2.48 -1.73,-4.27l0 -19.34c0,-1.79 0.58,-3.21 1.73,-4.27 1.14,-1.06 2.68,-1.59 4.58,-1.59zm-5.55 12.76l17.64 0 0 4.11 -17.64 0 0 -4.11zm58.1 -13.2c1.4,0 2.59,0.03 3.58,0.11 0.98,0.07 1.89,0.17 2.73,0.31 0.83,0.13 1.7,0.32 2.59,0.56l-0.49 4.16c-0.92,-0.06 -1.79,-0.11 -2.6,-0.16 -0.8,-0.04 -1.66,-0.08 -2.57,-0.11 -0.91,-0.03 -1.99,-0.04 -3.24,-0.04 -1.73,0 -3.09,0.34 -4.07,1.03 -0.99,0.68 -1.68,1.83 -2.09,3.44 -0.4,1.61 -0.6,3.84 -0.6,6.67 0,2.83 0.2,5.06 0.6,6.67 0.41,1.61 1.1,2.76 2.09,3.44 0.98,0.69 2.34,1.03 4.07,1.03 2,0 3.67,-0.03 5.03,-0.11 1.36,-0.07 2.69,-0.18 4.01,-0.33l0.49 4.11c-1.34,0.42 -2.73,0.72 -4.16,0.9 -1.43,0.18 -3.22,0.27 -5.37,0.27 -3.1,0 -5.58,-0.52 -7.43,-1.55 -1.85,-1.03 -3.18,-2.7 -4.01,-5.03 -0.82,-2.33 -1.23,-5.46 -1.23,-9.4 0,-3.94 0.41,-7.07 1.23,-9.4 0.83,-2.33 2.16,-4 4.01,-5.03 1.85,-1.03 4.33,-1.54 7.43,-1.54zm28.82 0.53l0.05 30.88 -5.59 0 0 -30.88 5.54 0zm9.63 0l0 4.57 -24.75 0 0 -4.57 24.75 0zm17.63 -0.4c2.69,0 4.82,0.29 6.38,0.87 1.57,0.58 2.68,1.58 3.34,3 0.65,1.42 0.98,3.42 0.98,6.02 0,2.59 -0.32,4.61 -0.96,6.04 -0.64,1.43 -1.7,2.43 -3.16,3 -1.46,0.57 -3.43,0.85 -5.9,0.85 -1.35,0 -2.64,-0.05 -3.88,-0.14 -1.23,-0.09 -2.38,-0.21 -3.44,-0.35 -1.06,-0.15 -1.96,-0.31 -2.71,-0.47 -0.74,-0.17 -1.27,-0.31 -1.56,-0.43l0.13 -3c1.7,0 3.45,0 5.26,0 1.8,0 3.6,0 5.39,0 1.31,-0.03 2.35,-0.19 3.11,-0.49 0.76,-0.3 1.3,-0.84 1.61,-1.63 0.32,-0.79 0.47,-1.92 0.47,-3.38 0,-1.46 -0.15,-2.59 -0.47,-3.38 -0.31,-0.79 -0.85,-1.34 -1.61,-1.66 -0.76,-0.31 -1.8,-0.47 -3.11,-0.47 -2.63,0 -4.88,0.02 -6.76,0.05 -1.88,0.03 -3.16,0.07 -3.85,0.13l-0.62 -4.16c1.19,-0.12 2.32,-0.21 3.38,-0.27 1.06,-0.06 2.2,-0.09 3.44,-0.11 1.24,-0.01 2.75,-0.02 4.54,-0.02zm-5.77 0.4l0 30.88 -5.59 0 0 -30.88 5.59 0zm35.14 -0.58c2.39,0 4.4,0.26 6.04,0.78 1.64,0.52 2.95,1.4 3.94,2.62 0.98,1.22 1.71,2.86 2.17,4.92 0.46,2.06 0.69,4.63 0.69,7.7 0,3.04 -0.23,5.6 -0.69,7.68 -0.46,2.07 -1.19,3.72 -2.17,4.94 -0.99,1.22 -2.3,2.1 -3.94,2.62 -1.64,0.52 -3.65,0.78 -6.04,0.78 -2.33,0 -4.31,-0.26 -5.95,-0.78 -1.64,-0.52 -2.97,-1.4 -3.99,-2.62 -1.01,-1.22 -1.74,-2.87 -2.19,-4.94 -0.45,-2.08 -0.67,-4.64 -0.67,-7.68 0,-3.07 0.22,-5.64 0.67,-7.7 0.45,-2.06 1.18,-3.7 2.19,-4.92 1.02,-1.22 2.35,-2.1 3.99,-2.62 1.64,-0.52 3.62,-0.78 5.95,-0.78zm0 4.56c-1.76,0 -3.14,0.36 -4.14,1.06 -1,0.7 -1.71,1.87 -2.13,3.53 -0.41,1.66 -0.62,3.95 -0.62,6.87 0,2.92 0.21,5.21 0.62,6.87 0.42,1.66 1.13,2.83 2.13,3.54 1,0.7 2.38,1.05 4.14,1.05 1.79,0 3.18,-0.35 4.18,-1.05 1,-0.71 1.71,-1.88 2.13,-3.54 0.42,-1.66 0.62,-3.95 0.62,-6.87 0,-2.92 -0.2,-5.21 -0.62,-6.87 -0.42,-1.66 -1.13,-2.83 -2.13,-3.53 -1,-0.7 -2.39,-1.06 -4.18,-1.06zm45.07 -3.98l0 30.88 -5.37 0 0 -20.09c0,-0.66 0.03,-1.32 0.09,-1.97 0.06,-0.66 0.13,-1.3 0.22,-1.93l-0.27 0c-0.21,0.63 -0.46,1.26 -0.76,1.91 -0.29,0.64 -0.59,1.25 -0.89,1.85l-11.95 20.23 -5.55 0 0 -30.88 5.37 0 0 19.83c0,0.65 -0.03,1.32 -0.09,2.01 -0.06,0.69 -0.12,1.36 -0.18,2.01l0.18 0c0.27,-0.62 0.56,-1.26 0.87,-1.9 0.32,-0.64 0.64,-1.26 0.97,-1.86l11.81 -20.09 5.55 0zm21.4 0l0.04 30.88 -5.59 0 0 -30.88 5.55 0zm9.62 0l0 4.57 -24.75 0 0 -4.57 24.75 0zm12.31 -0.09c1.55,0 3.14,0 4.77,0 1.62,0 3.22,0.03 4.79,0.09 1.56,0.06 3.06,0.15 4.49,0.27l-0.26 4.16 -12.09 0c-0.83,0 -1.45,0.21 -1.83,0.63 -0.39,0.42 -0.58,1.07 -0.58,1.97l0 16.82c0,0.9 0.19,1.55 0.58,1.97 0.38,0.42 1,0.63 1.83,0.63l12.09 0 0.26 4.16c-1.43,0.12 -2.93,0.2 -4.49,0.25 -1.57,0.04 -3.17,0.07 -4.79,0.09 -1.63,0.01 -3.22,0.02 -4.77,0.02 -1.91,0 -3.44,-0.53 -4.59,-1.59 -1.14,-1.06 -1.72,-2.48 -1.72,-4.27l0 -19.34c0,-1.79 0.58,-3.21 1.72,-4.27 1.15,-1.06 2.68,-1.59 4.59,-1.59zm-5.55 12.76l17.63 0 0 4.11 -17.63 0 0 -4.11zm49.19 -12.67l0 4.12 -9.89 0c-1.88,0 -2.89,0.94 -3.04,2.82 -0.18,2.27 -0.35,4.28 -0.52,6.04 -0.16,1.76 -0.36,3.33 -0.58,4.72 -0.22,1.39 -0.47,2.64 -0.74,3.76 -0.27,1.12 -0.63,2.17 -1.07,3.16 -0.6,1.55 -1.34,2.81 -2.22,3.8 -0.88,0.98 -1.9,1.68 -3.06,2.1 -1.17,0.42 -2.46,0.57 -3.9,0.45l-0.44 -4.34c0.98,-0.24 1.84,-0.61 2.57,-1.1 0.73,-0.49 1.35,-1.3 1.86,-2.44 0.3,-0.68 0.56,-1.4 0.78,-2.15 0.22,-0.74 0.42,-1.57 0.6,-2.48 0.18,-0.91 0.35,-1.95 0.5,-3.11 0.14,-1.16 0.29,-2.49 0.42,-3.98 0.13,-1.49 0.28,-3.19 0.43,-5.1 0.35,-4.18 2.59,-6.27 6.71,-6.27l11.59 0zm0.67 0l0 30.88 -5.64 0 0 -30.88 5.64 0zm19.92 11.91c2.72,0 4.86,0.3 6.42,0.91 1.57,0.61 2.69,1.62 3.36,3.02 0.67,1.4 1.01,3.33 1.01,5.78 0,2.53 -0.34,4.49 -1.01,5.88 -0.67,1.39 -1.73,2.36 -3.18,2.91 -1.44,0.55 -3.33,0.83 -5.66,0.83 -1.82,0 -3.39,-0.01 -4.72,-0.03 -1.33,-0.01 -2.54,-0.05 -3.65,-0.11 -1.1,-0.06 -2.26,-0.13 -3.49,-0.22l0.63 -4.16c0.71,0.03 1.98,0.06 3.78,0.09 1.81,0.03 3.98,0.04 6.51,0.04 1.4,0 2.47,-0.14 3.2,-0.42 0.73,-0.29 1.25,-0.82 1.55,-1.61 0.29,-0.79 0.44,-1.91 0.44,-3.34 0,-1.37 -0.13,-2.46 -0.4,-3.27 -0.27,-0.8 -0.78,-1.38 -1.52,-1.72 -0.75,-0.34 -1.84,-0.51 -3.27,-0.51l-10.34 0 0 -4.07 10.34 0zm-5.41 -11.91l0 30.88 -5.64 0 0 -30.88 5.64 0zm34.91 -0.53c1.4,0 2.6,0.03 3.58,0.11 0.98,0.07 1.89,0.17 2.73,0.31 0.84,0.13 1.7,0.32 2.6,0.56l-0.5 4.16c-0.92,-0.06 -1.79,-0.11 -2.59,-0.16 -0.81,-0.04 -1.67,-0.08 -2.58,-0.11 -0.91,-0.03 -1.99,-0.04 -3.24,-0.04 -1.73,0 -3.09,0.34 -4.07,1.03 -0.99,0.68 -1.68,1.83 -2.08,3.44 -0.41,1.61 -0.61,3.84 -0.61,6.67 0,2.83 0.2,5.06 0.61,6.67 0.4,1.61 1.09,2.76 2.08,3.44 0.98,0.69 2.34,1.03 4.07,1.03 2,0 3.68,-0.03 5.04,-0.11 1.35,-0.07 2.69,-0.18 4,-0.33l0.49 4.11c-1.34,0.42 -2.73,0.72 -4.16,0.9 -1.43,0.18 -3.22,0.27 -5.37,0.27 -3.1,0 -5.58,-0.52 -7.43,-1.55 -1.85,-1.03 -3.18,-2.7 -4,-5.03 -0.83,-2.33 -1.24,-5.46 -1.24,-9.4 0,-3.94 0.41,-7.07 1.24,-9.4 0.82,-2.33 2.15,-4 4,-5.03 1.85,-1.03 4.33,-1.54 7.43,-1.54zm28.83 0.53l0.04 30.88 -5.59 0 0 -30.88 5.55 0zm9.62 0l0 4.57 -24.75 0 0 -4.57 24.75 0zm17.23 -0.36c2.66,0 4.76,0.24 6.31,0.7 1.56,0.46 2.67,1.27 3.36,2.44 0.69,1.16 1.03,2.8 1.03,4.92 0,2.21 -0.42,3.89 -1.25,5.06 -0.84,1.16 -2.21,1.83 -4.12,2.01l0 0.18c2.36,0.21 4.01,1.01 4.94,2.42 0.94,1.4 1.41,3.34 1.41,5.81 0,2.12 -0.35,3.76 -1.05,4.93 -0.7,1.16 -1.8,1.97 -3.31,2.43 -1.51,0.47 -3.47,0.7 -5.88,0.7 -1.88,0 -3.52,-0.01 -4.9,-0.03 -1.39,-0.01 -2.67,-0.05 -3.85,-0.11 -1.18,-0.06 -2.4,-0.13 -3.65,-0.22l0.67 -4.07c0.69,0.03 2.01,0.06 3.96,0.09 1.96,0.03 4.23,0.04 6.83,0.04 1.43,0 2.55,-0.12 3.35,-0.38 0.81,-0.25 1.38,-0.73 1.7,-1.43 0.33,-0.7 0.5,-1.69 0.5,-2.98 0,-1.43 -0.18,-2.53 -0.52,-3.29 -0.34,-0.76 -0.93,-1.29 -1.77,-1.61 -0.83,-0.31 -2,-0.47 -3.49,-0.47l-10.6 0 0 -3.8 10.56 0c1.28,0 2.29,-0.13 3.02,-0.38 0.73,-0.26 1.26,-0.71 1.59,-1.37 0.33,-0.65 0.49,-1.59 0.49,-2.82 0,-1.22 -0.17,-2.16 -0.51,-2.81 -0.35,-0.66 -0.92,-1.1 -1.73,-1.33 -0.8,-0.22 -1.92,-0.33 -3.35,-0.33 -1.58,0 -2.99,0 -4.21,0 -1.22,0 -2.31,0.01 -3.27,0.02 -0.95,0.02 -1.8,0.05 -2.55,0.11l-0.67 -4.07c1.13,-0.12 2.22,-0.2 3.27,-0.25 1.04,-0.04 2.17,-0.07 3.4,-0.08 1.22,-0.02 2.65,-0.03 4.29,-0.03zm-5.5 0.36l0 30.88 -5.46 0 0 -30.88 5.46 0zm36.43 -0.58c2.39,0 4.41,0.26 6.05,0.78 1.64,0.52 2.95,1.4 3.93,2.62 0.99,1.22 1.71,2.86 2.17,4.92 0.47,2.06 0.7,4.63 0.7,7.7 0,3.04 -0.23,5.6 -0.7,7.68 -0.46,2.07 -1.18,3.72 -2.17,4.94 -0.98,1.22 -2.29,2.1 -3.93,2.62 -1.64,0.52 -3.66,0.78 -6.05,0.78 -2.32,0 -4.31,-0.26 -5.95,-0.78 -1.64,-0.52 -2.97,-1.4 -3.98,-2.62 -1.02,-1.22 -1.75,-2.87 -2.19,-4.94 -0.45,-2.08 -0.68,-4.64 -0.68,-7.68 0,-3.07 0.23,-5.64 0.68,-7.7 0.44,-2.06 1.17,-3.7 2.19,-4.92 1.01,-1.22 2.34,-2.1 3.98,-2.62 1.64,-0.52 3.63,-0.78 5.95,-0.78zm0 4.56c-1.76,0 -3.14,0.36 -4.14,1.06 -1,0.7 -1.7,1.87 -2.12,3.53 -0.42,1.66 -0.63,3.95 -0.63,6.87 0,2.92 0.21,5.21 0.63,6.87 0.42,1.66 1.12,2.83 2.12,3.54 1,0.7 2.38,1.05 4.14,1.05 1.79,0 3.19,-0.35 4.19,-1.05 1,-0.71 1.71,-1.88 2.12,-3.54 0.42,-1.66 0.63,-3.95 0.63,-6.87 0,-2.92 -0.21,-5.21 -0.63,-6.87 -0.41,-1.66 -1.12,-2.83 -2.12,-3.53 -1,-0.7 -2.4,-1.06 -4.19,-1.06z"/>
   </g>
  </g>
 </g>
</svg>
