<?xml version="1.0" encoding="UTF-8"?>
<!DOCTYPE svg PUBLIC "-//W3C//DTD SVG 1.1//EN" "http://www.w3.org/Graphics/SVG/1.1/DTD/svg11.dtd">
<!-- Creator: CorelDRAW 2020 (64-Bit) -->
<svg xmlns="http://www.w3.org/2000/svg" xml:space="preserve" width="679px" height="98px" version="1.1" style="shape-rendering:geometricPrecision; text-rendering:geometricPrecision; image-rendering:optimizeQuality; fill-rule:evenodd; clip-rule:evenodd"
viewBox="0 0 712 102.59"
 xmlns:xlink="http://www.w3.org/1999/xlink"
 xmlns:xodm="http://www.corel.com/coreldraw/odm/2003">
 <defs>
  <style type="text/css">
   <![CDATA[
    .fil0 {fill:url(#id0);fill-rule:nonzero}
   ]]>
  </style>
  <linearGradient id="id0" gradientUnits="userSpaceOnUse" x1="123.12" y1="382.63" x2="286.2" y2="-209.16">
   <stop offset="0" style="stop-opacity:1; stop-color:#EEB25C"/>
   <stop offset="0.360784" style="stop-opacity:1; stop-color:#CAA473"/>
   <stop offset="0.580392" style="stop-opacity:1; stop-color:#ECC578"/>
   <stop offset="0.8" style="stop-opacity:1; stop-color:#91754D"/>
   <stop offset="1" style="stop-opacity:1; stop-color:#EBD38B"/>
  </linearGradient>
 </defs>
 <g id="Слой_x0020_1">
  <metadata id="CorelCorpID_0Corel-Layer"/>
  <path class="fil0" d="M19.8 102.59c-5.41,0 -10.06,-1.95 -13.96,-5.84 -3.89,-3.9 -5.84,-8.55 -5.84,-13.96l0 -62.98c0,-5.42 1.95,-10.07 5.84,-13.97 3.9,-3.89 8.55,-5.84 13.96,-5.84l82.51 0 0 18.95 -78.51 0c-2.66,0 -4.16,0.17 -4.49,0.5 -0.33,0.33 -0.5,1.83 -0.5,4.49l0 54.71c0,2.66 0.17,4.16 0.5,4.49 0.33,0.33 1.83,0.5 4.49,0.5l78.51 0 0 18.95 -82.51 0zm97.47 0l0 -102.59 18.95 0 0 41.75 24.08 0 35.05 -41.75 20.52 0 0 5.41 -38.48 45.89 38.62 45.88 0 5.41 -20.66 0 -35.05 -41.75 -24.08 0 0 41.75 -18.95 0zm157.02 0l0 -102.45 82.64 0c5.51,0 10.21,1.97 14.1,5.92 3.9,3.94 5.85,8.57 5.85,13.89l0 27.64c0,5.42 -1.95,10.07 -5.85,13.96 -3.89,3.9 -8.59,5.85 -14.1,5.85l-63.84 0.14 0 35.05 -18.8 0zm23.79 -54.14l54.86 0c2.56,0 4.04,-0.15 4.42,-0.43 0.38,-0.29 0.57,-1.76 0.57,-4.42l0 -19.66c0,-2.66 -0.19,-4.16 -0.57,-4.49 -0.38,-0.33 -1.86,-0.5 -4.42,-0.5l-54.86 0c-2.66,0 -4.15,0.17 -4.49,0.5 -0.33,0.33 -0.5,1.83 -0.5,4.49l0 19.66c0,2.66 0.17,4.13 0.5,4.42 0.34,0.28 1.83,0.43 4.49,0.43zm89.2 54.14l0 -102.59 94.32 0 0.15 18.95 -75.52 -0.14 0 22.94 60.7 0.14 0 18.95 -60.7 -0.14 0 22.94 75.37 0.14 0.15 18.81 -94.47 0zm109 0l0 -102.59 18.95 0 0 41.75 24.08 0 35.05 -41.75 20.52 0 0 5.41 -38.47 45.89 38.61 45.88 0 5.41 -20.66 0 -35.05 -41.75 -24.08 0 0 41.75 -18.95 0zm132.94 0c-5.42,0 -10.07,-1.95 -13.96,-5.84 -3.9,-3.9 -5.85,-8.55 -5.85,-13.96l0 -62.98c0,-5.42 1.95,-10.07 5.85,-13.97 3.89,-3.89 8.54,-5.84 13.96,-5.84l62.98 0c5.41,0 10.07,1.95 13.96,5.84 3.9,3.9 5.84,8.55 5.84,13.97l0 62.98c0,5.41 -1.94,10.06 -5.84,13.96 -3.89,3.89 -8.55,5.84 -13.96,5.84l-62.98 0zm3.99 -18.95l54.86 0c2.56,0 4.03,-0.17 4.41,-0.5 0.38,-0.33 0.57,-1.83 0.57,-4.49l0 -54.71c0,-2.66 -0.19,-4.16 -0.57,-4.49 -0.38,-0.33 -1.85,-0.5 -4.41,-0.5l-54.86 0c-2.66,0 -4.16,0.17 -4.49,0.5 -0.33,0.33 -0.5,1.83 -0.5,4.49l0 54.71c0,2.66 0.17,4.16 0.5,4.49 0.33,0.33 1.83,0.5 4.49,0.5z"/>
 </g>
</svg>
